<svg width="152" height="46" viewBox="0 0 152 46" fill="none" xmlns="http://www.w3.org/2000/svg">
<path d="M82.9792 34.7914C83.6142 34.7914 83.9125 35.1955 84.0279 35.59L85.1729 35.2052C84.9708 34.4066 84.2396 33.608 82.9503 33.608C81.5744 33.608 80.4968 34.6567 80.4968 36.1192C80.4968 37.5721 81.5937 38.6304 82.9888 38.6304C84.2492 38.6304 84.9901 37.8222 85.2018 37.0333L84.076 36.658C83.9702 37.0236 83.6431 37.4566 82.9888 37.4566C82.3345 37.4566 81.7765 36.9755 81.7765 36.1192C81.7765 35.2629 82.3249 34.7914 82.9792 34.7914Z" fill="#1E1E56"/>
<path d="M88.2222 37.4662C87.5968 37.4662 87.0195 37.0044 87.0195 36.1192C87.0195 35.2244 87.5968 34.7722 88.2222 34.7722C88.8476 34.7722 89.4249 35.2244 89.4249 36.1192C89.4249 37.014 88.8476 37.4662 88.2222 37.4662ZM88.2222 33.608C86.8078 33.608 85.7398 34.6567 85.7398 36.1192C85.7398 37.5721 86.8078 38.6304 88.2222 38.6304C89.6365 38.6304 90.7045 37.5721 90.7045 36.1192C90.7045 34.6567 89.6365 33.608 88.2222 33.608Z" fill="#1E1E56"/>
<path d="M92.8312 35.7632C92.8312 35.2148 93.1583 34.7818 93.7164 34.7818C94.3321 34.7818 94.5919 35.1955 94.5919 35.7247V38.4861H95.8716V35.5034C95.8716 34.4643 95.3328 33.6272 94.159 33.6272C93.649 33.6272 93.0813 33.8485 92.7927 34.3392V33.7523H91.5515V38.4861H92.8312V35.7632Z" fill="#1E1E56"/>
<path d="M98.1681 35.7632C98.1681 35.2148 98.4953 34.7818 99.0533 34.7818C99.6691 34.7818 99.9289 35.1955 99.9289 35.7247V38.4861H101.209V35.5034C101.209 34.4643 100.67 33.6272 99.4959 33.6272C98.986 33.6272 98.4183 33.8485 98.1296 34.3392V33.7523H96.8885V38.4861H98.1681V35.7632Z" fill="#1E1E56"/>
<path d="M103.303 35.5804C103.332 35.1474 103.698 34.6471 104.361 34.6471C105.093 34.6471 105.401 35.109 105.42 35.5804H103.303ZM105.545 36.812C105.391 37.2353 105.064 37.5336 104.467 37.5336C103.832 37.5336 103.303 37.0814 103.274 36.456H106.661C106.661 36.4367 106.68 36.2443 106.68 36.0615C106.68 34.5413 105.805 33.608 104.342 33.608C103.13 33.608 102.014 34.5894 102.014 36.1C102.014 37.6971 103.159 38.6304 104.458 38.6304C105.622 38.6304 106.372 37.9473 106.613 37.1295L105.545 36.812Z" fill="#1E1E56"/>
<path d="M109.795 34.7914C110.43 34.7914 110.729 35.1955 110.844 35.59L111.989 35.2052C111.787 34.4066 111.056 33.608 109.767 33.608C108.391 33.608 107.313 34.6567 107.313 36.1192C107.313 37.5721 108.41 38.6304 109.805 38.6304C111.066 38.6304 111.806 37.8222 112.018 37.0333L110.892 36.658C110.786 37.0236 110.459 37.4566 109.805 37.4566C109.151 37.4566 108.593 36.9755 108.593 36.1192C108.593 35.2629 109.141 34.7914 109.795 34.7914Z" fill="#1E1E56"/>
<path d="M114.519 32.338H113.364V33.0018C113.364 33.4252 113.133 33.7523 112.633 33.7523H112.393V34.8877H113.249V37.091C113.249 38.005 113.826 38.5535 114.75 38.5535C115.125 38.5535 115.356 38.4861 115.471 38.438V37.3796C115.404 37.3989 115.231 37.4181 115.077 37.4181C114.711 37.4181 114.519 37.2834 114.519 36.8697V34.8877H115.471V33.7523H114.519V32.338Z" fill="#1E1E56"/>
<path d="M119.524 38.4861V37.9088C119.775 38.3129 120.275 38.6016 120.929 38.6016C122.276 38.6016 123.161 37.5336 123.161 36.1C123.161 34.6952 122.363 33.6272 120.977 33.6272C120.275 33.6272 119.755 33.9351 119.544 34.2719V31.5201H118.283V38.4861H119.524ZM121.882 36.1096C121.882 36.9755 121.362 37.4566 120.708 37.4566C120.063 37.4566 119.524 36.9659 119.524 36.1096C119.524 35.2437 120.063 34.7722 120.708 34.7722C121.362 34.7722 121.882 35.2437 121.882 36.1096Z" fill="#1E1E56"/>
<path d="M127.113 38.4861H128.335C128.316 38.3225 128.287 37.9954 128.287 37.6298V33.7523H127.007V36.5041C127.007 37.0525 126.68 37.4374 126.112 37.4374C125.516 37.4374 125.246 37.014 125.246 36.4848V33.7523H123.967V36.7446C123.967 37.7741 124.621 38.6112 125.766 38.6112C126.266 38.6112 126.815 38.4188 127.074 37.9762C127.074 38.1686 127.094 38.3899 127.113 38.4861Z" fill="#1E1E56"/>
<path d="M130.631 38.4861V33.7523H129.352V38.4861H130.631ZM129.198 32.2033C129.198 32.6266 129.554 32.9826 129.987 32.9826C130.429 32.9826 130.776 32.6266 130.776 32.2033C130.776 31.7607 130.429 31.4047 129.987 31.4047C129.554 31.4047 129.198 31.7607 129.198 32.2033Z" fill="#1E1E56"/>
<path d="M132.971 38.4861V31.5201H131.691V38.4861H132.971Z" fill="#1E1E56"/>
<path d="M138.688 31.5201H137.427V34.2238C137.293 33.9736 136.908 33.6369 136.09 33.6369C134.753 33.6369 133.819 34.7241 133.819 36.1096C133.819 37.5432 134.781 38.6016 136.128 38.6016C136.763 38.6016 137.245 38.3129 137.456 37.9377C137.456 38.159 137.485 38.3899 137.504 38.4861H138.726C138.707 38.2937 138.688 37.9473 138.688 37.6298V31.5201ZM135.109 36.1096C135.109 35.2629 135.628 34.7818 136.282 34.7818C136.937 34.7818 137.447 35.2533 137.447 36.1C137.447 36.9563 136.937 37.4566 136.282 37.4566C135.609 37.4566 135.109 36.9563 135.109 36.1096Z" fill="#1E1E56"/>
<path d="M141.033 38.4861V33.7523H139.753V38.4861H141.033ZM139.599 32.2033C139.599 32.6266 139.955 32.9826 140.388 32.9826C140.831 32.9826 141.177 32.6266 141.177 32.2033C141.177 31.7607 140.831 31.4047 140.388 31.4047C139.955 31.4047 139.599 31.7607 139.599 32.2033Z" fill="#1E1E56"/>
<path d="M143.372 35.7632C143.372 35.2148 143.7 34.7818 144.258 34.7818C144.873 34.7818 145.133 35.1955 145.133 35.7247V38.4861H146.413V35.5034C146.413 34.4643 145.874 33.6272 144.7 33.6272C144.19 33.6272 143.623 33.8485 143.334 34.3392V33.7523H142.093V38.4861H143.372V35.7632Z" fill="#1E1E56"/>
<path d="M147.218 38.7459C147.353 39.6503 148.219 40.4585 149.518 40.4585C151.298 40.4585 152 39.2751 152 37.9762V33.7523H150.768V34.3104C150.605 33.9929 150.172 33.6657 149.421 33.6657C148.122 33.6657 147.218 34.7241 147.218 35.9749C147.218 37.3027 148.161 38.2744 149.421 38.2744C150.105 38.2744 150.547 37.9762 150.74 37.6683V38.0147C150.74 38.9287 150.287 39.3328 149.479 39.3328C148.873 39.3328 148.459 38.9576 148.373 38.438L147.218 38.7459ZM149.643 37.1776C148.979 37.1776 148.507 36.7158 148.507 35.9749C148.507 35.2437 149.008 34.7818 149.643 34.7818C150.258 34.7818 150.759 35.2437 150.759 35.9749C150.759 36.7061 150.297 37.1776 149.643 37.1776Z" fill="#1E1E56"/>
<rect x="25.0164" width="48.7491" height="44.9005" fill="#1E1E56"/>
<rect x="18.8652" y="8.9801" width="7.05579" height="37.7302" transform="rotate(30 18.8652 8.9801)" fill="#EC3C2E"/>
<path d="M36.6596 28.2232V27.1455C37.1266 27.8999 38.0605 28.4387 39.2818 28.4387C41.7963 28.4387 43.4486 26.4451 43.4486 23.769C43.4486 21.1468 41.9579 19.1533 39.3716 19.1533C38.0605 19.1533 37.0907 19.728 36.6956 20.3566V15.22H34.3428V28.2232H36.6596ZM41.0599 23.787C41.0599 25.4034 40.09 26.3014 38.8687 26.3014C37.6654 26.3014 36.6596 25.3854 36.6596 23.787C36.6596 22.1706 37.6654 21.2905 38.8687 21.2905C40.09 21.2905 41.0599 22.1706 41.0599 23.787Z" fill="#EC3C2E"/>
<path d="M44.6466 25.8165C44.6466 27.1994 45.796 28.4746 47.6819 28.4746C48.993 28.4746 49.8371 27.864 50.2861 27.1635C50.2861 27.5047 50.322 27.9897 50.3759 28.2232H52.567C52.5132 27.9178 52.4593 27.2892 52.4593 26.8223V22.4759C52.4593 20.6978 51.4176 19.1173 48.6158 19.1173C46.2451 19.1173 44.9699 20.644 44.8262 22.0269L46.9455 22.4759C47.0173 21.7036 47.5921 21.0391 48.6338 21.0391C49.6395 21.0391 50.1245 21.5599 50.1245 22.1885C50.1245 22.4939 49.9628 22.7453 49.4599 22.8171L47.2867 23.1404C45.814 23.3559 44.6466 24.236 44.6466 25.8165ZM48.1848 26.6965C47.4125 26.6965 47.0353 26.1937 47.0353 25.6728C47.0353 24.9903 47.5202 24.6491 48.1309 24.5593L50.1245 24.254V24.6491C50.1245 26.2116 49.1905 26.6965 48.1848 26.6965Z" fill="#EC3C2E"/>
<path d="M56.7438 31.6356V27.3611C57.1748 27.9538 58.0728 28.4387 59.2941 28.4387C61.7906 28.4387 63.4609 26.4631 63.4609 23.787C63.4609 21.1648 61.9702 19.1892 59.3839 19.1892C58.0549 19.1892 57.0671 19.7819 56.6719 20.4643V19.3867H54.3551V31.6356H56.7438ZM61.1081 23.8049C61.1081 25.3854 60.1382 26.3014 58.917 26.3014C57.6957 26.3014 56.7079 25.3675 56.7079 23.8049C56.7079 22.2424 57.6957 21.3264 58.917 21.3264C60.1382 21.3264 61.1081 22.2424 61.1081 23.8049Z" fill="#EC3C2E"/>
<path d="M64.7487 26.7145C64.7487 27.6125 65.4851 28.3489 66.3831 28.3489C67.299 28.3489 68.0354 27.6125 68.0354 26.7145C68.0354 25.8165 67.299 25.0801 66.3831 25.0801C65.4851 25.0801 64.7487 25.8165 64.7487 26.7145Z" fill="#EC3C2E"/>
</svg>
