<svg width="148" height="44" viewBox="0 0 148 44" fill="none" xmlns="http://www.w3.org/2000/svg">
<rect x="24.3579" y="0.5" width="47.4661" height="42.7308" fill="#1E1E56"/>
<rect width="6.83161" height="36.1164" transform="matrix(0.870904 0.491454 -0.508595 0.861006 18.3689 9.04614)" fill="#EC3C2E"/>
<path d="M35.6949 27.3593V26.3338C36.1495 27.0517 37.0589 27.5644 38.248 27.5644C40.6963 27.5644 42.3051 25.6672 42.3051 23.1204C42.3051 20.625 40.8537 18.7277 38.3355 18.7277C37.0589 18.7277 36.1146 19.2747 35.7298 19.8729V14.9845H33.439V27.3593H35.6949ZM39.9793 23.1375C39.9793 24.6758 39.035 25.5305 37.8458 25.5305C36.6742 25.5305 35.6949 24.6588 35.6949 23.1375C35.6949 21.5992 36.6742 20.7617 37.8458 20.7617C39.035 20.7617 39.9793 21.5992 39.9793 23.1375Z" fill="#EC3C2E"/>
<path d="M43.4716 25.069C43.4716 26.3851 44.5908 27.5986 46.427 27.5986C47.7036 27.5986 48.5255 27.0175 48.9627 26.3509C48.9627 26.6756 48.9977 27.1371 49.0501 27.3593H51.1836C51.1311 27.0688 51.0787 26.4705 51.0787 26.0261V21.8898C51.0787 20.1977 50.0644 18.6935 47.3363 18.6935C45.028 18.6935 43.7864 20.1464 43.6465 21.4625L45.71 21.8898C45.78 21.1548 46.3396 20.5224 47.3538 20.5224C48.3331 20.5224 48.8053 21.0181 48.8053 21.6163C48.8053 21.9069 48.6479 22.1462 48.1583 22.2146L46.0423 22.5222C44.6083 22.7273 43.4716 23.5648 43.4716 25.069ZM46.9166 25.9065C46.1647 25.9065 45.7974 25.4279 45.7974 24.9322C45.7974 24.2827 46.2696 23.958 46.8642 23.8725L48.8053 23.5819V23.958C48.8053 25.445 47.8959 25.9065 46.9166 25.9065Z" fill="#EC3C2E"/>
<path d="M55.2504 30.6069V26.5389C55.6701 27.103 56.5445 27.5644 57.7336 27.5644C60.1644 27.5644 61.7907 25.6843 61.7907 23.1375C61.7907 20.6421 60.3393 18.7619 57.8211 18.7619C56.527 18.7619 55.5652 19.3259 55.1804 19.9755V18.9499H52.9246V30.6069H55.2504ZM59.4999 23.1546C59.4999 24.6588 58.5555 25.5305 57.3664 25.5305C56.1772 25.5305 55.2154 24.6417 55.2154 23.1546C55.2154 21.6676 56.1772 20.7959 57.3664 20.7959C58.5555 20.7959 59.4999 21.6676 59.4999 23.1546Z" fill="#EC3C2E"/>
<path d="M63.0446 25.9236C63.0446 26.7782 63.7616 27.479 64.636 27.479C65.5279 27.479 66.2449 26.7782 66.2449 25.9236C66.2449 25.069 65.5279 24.3682 64.636 24.3682C63.7616 24.3682 63.0446 25.069 63.0446 25.9236Z" fill="#EC3C2E"/>
</svg>
